<svg xmlns="http://www.w3.org/2000/svg" width="320" height="217" viewBox="0 0 320 217"><defs><style>.a{fill:#464646;}.b{fill:#ebedef;}.c{fill:#fff;}.d{fill:#888;}</style></defs><g transform="translate(-204.944 -200.889)"><rect class="a" width="318" height="217" rx="5" transform="translate(205.944 200.889)"/><rect class="b" width="320" height="19" transform="translate(204.944 233.889)"/><circle class="b" cx="5" cy="5" r="5" transform="translate(221.944 212.889)"/><circle class="b" cx="5" cy="5" r="5" transform="translate(239.944 212.889)"/><circle class="b" cx="5" cy="5" r="5" transform="translate(257.944 212.889)"/><g transform="translate(295.48 282.19)"><g transform="translate(0.385)"><g transform="translate(2.197 3.093)"><path class="c" d="M83.27,149.995H69.492V138.171H45.141v-9.693l25.483-37.53H83.27v35.863h6.869v11.359H83.27ZM71.486,148h9.79V136.176h6.869v-7.37H81.276V92.942H71.681L47.134,129.091v7.085H71.486Zm0-19.194H54.9l11.482-17.352a42.806,42.806,0,0,0,3.4-6.1l.265-.586h2.122l-.181,1.152c-.049.313-.141,1.474-.3,5.232-.129,3.048-.193,5.4-.193,6.984Zm-12.878-1.994H69.492v-8.68c0-1.614.066-3.99.195-7.067.02-.46.038-.881.055-1.266q-.794,1.4-1.7,2.758Z" transform="translate(-45.141 -90.948)"/></g><g transform="translate(49.337 2.197)"><path class="c" d="M96.766,151.088c-6.9,0-12.191-2.642-15.713-7.854-3.441-5.087-5.186-12.64-5.186-22.451,0-10.224,1.7-17.9,5.052-22.823,3.432-5.041,8.765-7.6,15.847-7.6,6.9,0,12.2,2.668,15.753,7.932,3.467,5.138,5.224,12.7,5.224,22.487,0,10.123-1.706,17.757-5.071,22.689C109.225,148.525,103.874,151.088,96.766,151.088Zm0-58.729c-6.473,0-11.117,2.2-14.2,6.723-3.122,4.584-4.705,11.885-4.705,21.7,0,9.4,1.629,16.583,4.843,21.335,3.174,4.695,7.772,6.976,14.061,6.976,6.5,0,11.163-2.206,14.259-6.744,3.134-4.6,4.724-11.852,4.724-21.566,0-9.379-1.643-16.568-4.883-21.371C107.663,94.666,103.051,92.358,96.766,92.358Zm0,49.012c-3.3,0-5.663-1.74-7.033-5.173-1.269-3.177-1.886-8.22-1.886-15.414s.624-12.248,1.905-15.452c1.382-3.458,3.742-5.21,7.013-5.21,3.213,0,5.565,1.749,6.99,5.2,1.326,3.213,1.968,8.269,1.968,15.462,0,7.117-.637,12.142-1.947,15.362C102.367,139.612,100.008,141.37,96.766,141.37Zm0-39.256c-2.409,0-4.1,1.293-5.161,3.957-1.169,2.923-1.763,7.872-1.763,14.711s.586,11.777,1.743,14.675c1.052,2.637,2.748,3.92,5.181,3.92,2.384,0,4.073-1.3,5.164-3.984,1.194-2.936,1.8-7.852,1.8-14.61,0-6.83-.612-11.777-1.818-14.7C100.808,103.412,99.125,102.114,96.766,102.114Z" transform="translate(-75.867 -90.364)"/></g><g transform="translate(93.431 3.093)"><path class="c" d="M142.739,149.995h-13.78V138.171H104.608v-9.693l25.485-37.53h12.646v35.863h6.867v11.359h-6.867ZM130.953,148h9.791V136.176h6.869v-7.37h-6.869V92.942h-9.6L106.6,129.091v7.085h24.351Zm0-19.194H114.366l11.482-17.352a42.952,42.952,0,0,0,3.4-6.1l.264-.586h2.122l-.181,1.152c-.04.256-.133,1.278-.3,5.232-.129,3.044-.195,5.391-.195,6.984Zm-12.877-1.994h10.882v-8.68c0-1.62.066-4,.2-7.067q.03-.69.057-1.267-.8,1.4-1.7,2.76Z" transform="translate(-104.608 -90.948)"/></g><g transform="translate(0 0.897)"><path class="d" d="M86.713,134.745H79.844v11.823H68.06V134.745H43.709v-8.391L68.724,89.517h11.12v35.862h6.869ZM68.06,125.379V115.7q0-2.419.195-7.024t.313-5.347h-.313a43.417,43.417,0,0,1-3.473,6.244l-10.457,15.8Z" transform="translate(-43.709 -89.517)"/></g><g transform="translate(47.141)"><path class="d" d="M114.317,118.355q0,14.947-4.9,22.126t-15.083,7.18q-9.873,0-14.886-7.413t-5.014-21.893q0-15.1,4.877-22.263t15.023-7.16q9.873,0,14.926,7.493T114.317,118.355Zm-27.9,0q0,10.5,1.815,15.043t6.106,4.547q4.216,0,6.089-4.6t1.872-14.986q0-10.5-1.892-15.083t-6.069-4.584q-4.253,0-6.086,4.584T86.415,118.355Z" transform="translate(-74.436 -88.932)"/></g><g transform="translate(91.236 0.897)"><path class="d" d="M146.181,134.745h-6.869v11.823H127.528V134.745H103.177v-8.391l25.014-36.838h11.121v35.862h6.869Zm-18.653-9.366V115.7q0-2.419.195-7.024t.313-5.347h-.313a43.717,43.717,0,0,1-3.473,6.244l-10.457,15.8Z" transform="translate(-103.177 -89.517)"/></g></g><g transform="translate(0 73.291)"><g transform="translate(1.485 1.485)"><path class="c" d="M60.143,173.126c-4.909,0-8.813-1.388-11.6-4.122s-4.211-6.646-4.211-11.613c0-5.092,1.306-9.1,3.883-11.916,2.593-2.832,6.208-4.267,10.746-4.267,4.336,0,7.773,1.266,10.215,3.763s3.673,5.962,3.673,10.31v4.578H53.875a6.775,6.775,0,0,0,1.788,4.206,6.453,6.453,0,0,0,4.849,1.725,21.581,21.581,0,0,0,4.884-.535,24.69,24.69,0,0,0,4.825-1.721l.961-.451v7.7l-.373.186a19.772,19.772,0,0,1-4.67,1.627A29.3,29.3,0,0,1,60.143,173.126Zm-1.186-30.572c-4.144,0-7.425,1.289-9.751,3.831-2.342,2.559-3.53,6.262-3.53,11.006,0,4.591,1.282,8.174,3.808,10.65s6.115,3.735,10.66,3.735a27.962,27.962,0,0,0,5.714-.5,18.535,18.535,0,0,0,3.978-1.333v-4.761a24.927,24.927,0,0,1-4.132,1.381,22.906,22.906,0,0,1-5.191.571,7.822,7.822,0,0,1-5.808-2.126,8.418,8.418,0,0,1-2.224-5.8l-.027-.7H71.5v-3.23c0-3.983-1.107-7.135-3.288-9.367S62.916,142.554,58.956,142.554Zm6.357,11.95h-12.7l.052-.721a8.184,8.184,0,0,1,1.831-5.006,5.77,5.77,0,0,1,4.512-1.847,5.935,5.935,0,0,1,4.556,1.839,7.374,7.374,0,0,1,1.737,5.049Zm-11.231-1.347h9.836a5.667,5.667,0,0,0-1.343-3.472,4.588,4.588,0,0,0-3.567-1.406,4.426,4.426,0,0,0-3.507,1.4A6.387,6.387,0,0,0,54.082,153.157Z" transform="translate(-44.328 -141.207)"/></g><g transform="translate(35.195 1.485)"><path class="c" d="M86.227,172.6H76.834V141.761h7.3l1.043,4.357a11.746,11.746,0,0,1,3.348-3.285,9.837,9.837,0,0,1,5.444-1.625,13.708,13.708,0,0,1,2.861.253l.575.125-.718,8.937-.783-.211a8.671,8.671,0,0,0-2.2-.241,7.923,7.923,0,0,0-5.545,1.8,6.457,6.457,0,0,0-1.932,5.043Zm-8.045-1.349h6.7V156.916a7.832,7.832,0,0,1,2.366-6.035,9.216,9.216,0,0,1,6.459-2.156,11.6,11.6,0,0,1,1.763.122l.5-6.172a14.541,14.541,0,0,0-2-.12,8.506,8.506,0,0,0-4.709,1.408,10.474,10.474,0,0,0-3.484,3.757l-.193.347H84.257l-1.187-4.958H78.182Z" transform="translate(-76.834 -141.207)"/></g><g transform="translate(59.725 1.485)"><path class="c" d="M109.881,172.6h-9.392V141.761h7.3l1.043,4.357a11.743,11.743,0,0,1,3.346-3.285,9.843,9.843,0,0,1,5.445-1.625,13.715,13.715,0,0,1,2.861.253l.575.125-.719,8.937-.782-.211a8.68,8.68,0,0,0-2.2-.241,7.927,7.927,0,0,0-5.545,1.8,6.457,6.457,0,0,0-1.932,5.043Zm-8.044-1.349h6.7V156.916a7.832,7.832,0,0,1,2.367-6.035,9.215,9.215,0,0,1,6.458-2.156,11.755,11.755,0,0,1,1.764.122l.5-6.172a14.541,14.541,0,0,0-2-.12,8.518,8.518,0,0,0-4.711,1.408,10.481,10.481,0,0,0-3.483,3.757l-.192.347h-1.325l-1.186-4.958h-4.887Z" transform="translate(-100.489 -141.207)"/></g><g transform="translate(82.462 1.485)"><path class="c" d="M137.306,173.126a15.519,15.519,0,0,1-7.826-1.95,13.089,13.089,0,0,1-5.253-5.623,18.7,18.7,0,0,1-1.813-8.427c0-4.973,1.331-8.909,3.955-11.7s6.368-4.221,11.1-4.221a15.61,15.61,0,0,1,7.824,1.934,13.056,13.056,0,0,1,5.255,5.584,18.543,18.543,0,0,1,1.812,8.4c0,4.955-1.339,8.9-3.98,11.724S142,173.126,137.306,173.126Zm.159-30.572c-4.34,0-7.743,1.278-10.113,3.8s-3.589,6.157-3.589,10.775a17.373,17.373,0,0,0,1.671,7.823,11.766,11.766,0,0,0,4.716,5.058,14.213,14.213,0,0,0,7.157,1.769c4.3,0,7.7-1.293,10.085-3.847s3.616-6.2,3.616-10.8a17.2,17.2,0,0,0-1.669-7.794,11.716,11.716,0,0,0-4.716-5.019A14.285,14.285,0,0,0,137.464,142.554Zm-.054,24.109a5.8,5.8,0,0,1-5.248-2.551c-1.025-1.6-1.544-3.949-1.544-6.985,0-3.1.5-5.373,1.534-6.95a6.722,6.722,0,0,1,10.441.014c1.032,1.588,1.534,3.857,1.534,6.937,0,3.052-.51,5.4-1.516,6.994A5.713,5.713,0,0,1,137.41,166.663Zm-.052-17.619a4.469,4.469,0,0,0-4.079,1.871c-.872,1.333-1.315,3.422-1.315,6.212a11.809,11.809,0,0,0,1.333,6.257,4.473,4.473,0,0,0,4.113,1.931,4.394,4.394,0,0,0,4.06-1.915c.868-1.37,1.308-3.48,1.308-6.273,0-2.772-.443-4.858-1.315-6.2A4.49,4.49,0,0,0,137.359,149.044Z" transform="translate(-122.414 -141.207)"/></g><g transform="translate(117.703 1.485)"><path class="c" d="M165.789,172.6H156.4V141.761h7.3l1.043,4.357a11.746,11.746,0,0,1,3.348-3.285,9.837,9.837,0,0,1,5.444-1.625,13.715,13.715,0,0,1,2.861.253l.575.125-.718,8.937-.783-.211a8.677,8.677,0,0,0-2.2-.241,7.923,7.923,0,0,0-5.545,1.8,6.454,6.454,0,0,0-1.932,5.043Zm-8.045-1.349h6.7V156.916a7.83,7.83,0,0,1,2.367-6.035,9.216,9.216,0,0,1,6.459-2.156,11.74,11.74,0,0,1,1.763.122l.5-6.172a14.541,14.541,0,0,0-2-.12,8.512,8.512,0,0,0-4.71,1.408,10.471,10.471,0,0,0-3.483,3.757l-.193.347h-1.324l-1.187-4.958h-4.888Z" transform="translate(-156.396 -141.207)"/></g><g transform="translate(0 0)"><path class="d" d="M58.037,170.347q-7.121,0-11.13-3.93T42.9,155.285q0-7.411,3.706-11.461t10.248-4.049q6.25,0,9.734,3.561t3.481,9.839v3.9H51.047a7.747,7.747,0,0,0,2.03,5.354,7.148,7.148,0,0,0,5.329,1.926,22.117,22.117,0,0,0,5.037-.554,25.188,25.188,0,0,0,4.959-1.767v6.224a18.91,18.91,0,0,1-4.51,1.57A28.494,28.494,0,0,1,58.037,170.347ZM56.9,145.5a5.1,5.1,0,0,0-4.01,1.623,7.505,7.505,0,0,0-1.661,4.6H62.521a6.7,6.7,0,0,0-1.557-4.6A5.267,5.267,0,0,0,56.9,145.5Z" transform="translate(-42.896 -139.775)"/></g><g transform="translate(33.711 0)"><path class="d" d="M91.863,139.775a12.938,12.938,0,0,1,2.716.237l-.606,7.543a9.3,9.3,0,0,0-2.375-.263,8.531,8.531,0,0,0-6,1.979,7.151,7.151,0,0,0-2.15,5.539v15.009H75.4v-29.49H81.5l1.187,4.959h.4a11.093,11.093,0,0,1,3.706-4A9.132,9.132,0,0,1,91.863,139.775Z" transform="translate(-75.403 -139.775)"/></g><g transform="translate(58.24 0)"><path class="d" d="M115.517,139.775a12.956,12.956,0,0,1,2.717.237l-.607,7.543a9.291,9.291,0,0,0-2.374-.263,8.531,8.531,0,0,0-6,1.979,7.151,7.151,0,0,0-2.15,5.539v15.009H99.057v-29.49h6.094l1.187,4.959h.4a11.084,11.084,0,0,1,3.706-4A9.132,9.132,0,0,1,115.517,139.775Z" transform="translate(-99.057 -139.775)"/></g><g transform="translate(80.978 0)"><path class="d" d="M149.576,155.021q0,7.2-3.8,11.262T135.2,170.347a14.8,14.8,0,0,1-7.49-1.859,12.382,12.382,0,0,1-4.985-5.342,17.94,17.94,0,0,1-1.741-8.124q0-7.227,3.772-11.237t10.6-4.009a14.883,14.883,0,0,1,7.491,1.847,12.328,12.328,0,0,1,4.985,5.3A17.786,17.786,0,0,1,149.576,155.021Zm-20.39,0q0,4.377,1.438,6.62a5.141,5.141,0,0,0,4.681,2.242,5.057,5.057,0,0,0,4.629-2.23q1.411-2.229,1.411-6.633,0-4.379-1.424-6.57a6.057,6.057,0,0,0-9.311-.011Q129.186,150.617,129.186,155.021Z" transform="translate(-120.983 -139.775)"/></g><g transform="translate(116.218 0)"><path class="d" d="M171.424,139.775a12.955,12.955,0,0,1,2.717.237l-.607,7.543a9.291,9.291,0,0,0-2.374-.263,8.531,8.531,0,0,0-6,1.979,7.151,7.151,0,0,0-2.15,5.539v15.009h-8.045v-29.49h6.094l1.187,4.959h.4a11.093,11.093,0,0,1,3.706-4A9.131,9.131,0,0,1,171.424,139.775Z" transform="translate(-154.964 -139.775)"/></g></g></g></g></svg>